<?xml version="1.0" encoding="iso-8859-1"?>
<!-- Generator: Adobe Illustrator 15.0.0, SVG Export Plug-In . SVG Version: 6.00 Build 0)  -->
<!DOCTYPE svg PUBLIC "-//W3C//DTD SVG 1.1//EN" "http://www.w3.org/Graphics/SVG/1.1/DTD/svg11.dtd">
<svg version="1.1" id="&#x30EC;&#x30A4;&#x30E4;&#x30FC;_1"
	 xmlns="http://www.w3.org/2000/svg" xmlns:xlink="http://www.w3.org/1999/xlink" x="0px" y="0px" width="141.732px"
	 height="141.732px" viewBox="0 0 141.732 141.732" style="enable-background:new 0 0 141.732 141.732;" xml:space="preserve">
<path style="fill-rule:evenodd;clip-rule:evenodd;fill:#000000;" d="M30.649,25.809v0.011c0.083-9.162,8.256-2.415,9.676-0.995
	c6.211,6.308,2.065,14.834,1.626,15.851c-1.604,2.843,1.3,4.994,3.134,2.44c7.806-17.388-4.054-24.755-5.725-25.875
	c-5.08-2.851-8.039-7.722-8.729-8.954c-0.114-0.756-0.764-1.336-1.551-1.336c-0.867,0-1.57,0.703-1.57,1.57v38.716v0.875
	c-0.067,0.578-0.303,1.253-1.014,1.398c-3.129-0.989-7.559-0.311-11.702,2.087c-6.158,3.565-9.356,9.576-7.145,13.431
	c2.215,3.852,9.001,4.088,15.159,0.522c5.194-3.007,8.282-7.756,7.792-11.48c0.03-0.122,0.047-0.247,0.047-0.381V25.962V25.809z
	 M30.649,25.82v0.142C30.655,25.948,30.655,25.9,30.649,25.82z M111.78,87.009c2.212,3.854,8.998,4.088,15.156,0.522
	c5.196-3.004,8.284-7.753,7.795-11.479c0.03-0.119,0.044-0.247,0.044-0.378V30.502c0-0.867-0.7-1.57-1.567-1.57
	c-0.863,0-1.566,0.703-1.566,1.57v38.719v0.875c-0.07,0.578-0.304,1.253-1.018,1.395c-3.126-0.989-7.556-0.308-11.702,2.09
	C112.764,77.144,109.565,83.157,111.78,87.009z M89.454,68.249c0-0.809-0.608-1.473-1.393-1.559l-0.035-0.005
	c-0.047-0.003-0.092-0.005-0.139-0.005c-0.226,0-0.438,0.047-0.632,0.133l-38.927,6.844v0.009c-0.784,0.086-1.392,0.753-1.392,1.559
	v38.719v0.875c-0.07,0.578-0.303,1.254-1.017,1.396c-3.126-0.986-7.556-0.309-11.702,2.09c-6.158,3.563-9.354,9.575-7.142,13.428
	c2.212,3.854,8.998,4.088,15.156,0.525c5.196-3.007,8.284-7.757,7.795-11.48c0.03-0.122,0.044-0.25,0.044-0.38V88.132
	c0,0,0.095-1.167,1.051-1.682l33.086-5.886c1.72,0.15,2.056,1.484,2.111,2.212c0.02,0.281,0,0.47,0,0.47v23.722v0.875
	c-0.069,0.578-0.303,1.25-1.017,1.395c-3.126-0.989-7.556-0.311-11.702,2.09c-6.158,3.563-9.356,9.576-7.142,13.428
	c2.212,3.852,8.998,4.088,15.156,0.522c5.194-3.007,8.284-7.753,7.794-11.479c0.028-0.122,0.045-0.247,0.045-0.378V68.249z
	 M88.062,66.689v-0.011l-0.035,0.005L88.062,66.689z M86.319,82.776v0.47C86.319,83.246,86.339,83.058,86.319,82.776z"/>
</svg>
